<svg width="240" height="240" viewBox="0 0 240 240" xmlns="http://www.w3.org/2000/svg" shape-rendering="crispEdges">
<title>Media Journal app icon — smiling pixel TV</title>
<rect x="0" y="0" width="240" height="240" rx="54" fill="#F2ECDD"/>
<rect x="96" y="60" width="12" height="12" fill="#26281D"/>
<rect x="108" y="72" width="12" height="12" fill="#26281D"/>
<rect x="144" y="60" width="12" height="12" fill="#26281D"/>
<rect x="132" y="72" width="12" height="12" fill="#26281D"/>
<rect x="60" y="84" width="120" height="96" fill="#26281D"/>
<rect x="72" y="96" width="84" height="72" fill="#D8A53A"/>
<rect x="162" y="114" width="12" height="12" fill="#26281D"/>
<rect x="162" y="144" width="12" height="12" fill="#26281D"/>
<rect x="84" y="180" width="12" height="12" fill="#26281D"/>
<rect x="144" y="180" width="12" height="12" fill="#26281D"/>
<rect x="90" y="114" width="12" height="12" fill="#26281D"/>
<rect x="126" y="114" width="12" height="12" fill="#26281D"/>
<rect x="90" y="138" width="6" height="6" fill="#26281D"/>
<rect x="132" y="138" width="6" height="6" fill="#26281D"/>
<rect x="96" y="144" width="6" height="6" fill="#26281D"/>
<rect x="126" y="144" width="6" height="6" fill="#26281D"/>
<rect x="102" y="150" width="6" height="6" fill="#26281D"/>
<rect x="108" y="150" width="6" height="6" fill="#26281D"/>
<rect x="114" y="150" width="6" height="6" fill="#26281D"/>
<rect x="120" y="150" width="6" height="6" fill="#26281D"/>
</svg>
